
		<svg width="3282.5657013976947" height="2902.161766018388" xmlns="http://www.w3.org/2000/svg" xmlns:xlink="http://www.w3.org/1999/xlink" version="1.1">
            <g transform="scale(14.128285069884738) translate(10, 10)">
				<defs id="SvgjsDefs1002"/><g id="main_text" rel="mainfill" name="main_text" xmlns:name="mainText_mainfill" fill="#462310" transform="translate(1.4999998807907104, 114.19500312805181)"><path d="M3.42 28.56 c-2.4 0.12 -3.48 -0.18 -3.78 -0.84 c-1.14 -1.74 0.96 -1.74 2.1 -1.68 c1.2 -0.12 0.72 0.12 1.98 -0.06 c0.3 -2.52 1.2 -9.78 4.2 -9.72 c1.38 -0.06 3.54 0.36 3.66 1.68 c0.06 2.76 -0.78 5.34 -0.6 7.92 c1.38 0.24 4.8 -0.24 4.8 1.32 c0.06 1.14 -2.04 1.44 -4.98 1.5 c-0.12 3.54 -1.02 12.24 -0.9 16.02 c0.18 6.78 0.72 8.82 1.98 10.56 c1.8 2.34 3.48 3.06 3.06 4.44 c-0.66 2.34 -5.22 1.02 -7.44 -0.9 c-1.44 -1.26 -3.48 -3.78 -4.2 -9.24 c-0.6 -4.44 -0.54 -8.58 -0.3 -13.02 c0 -0.6 0.42 -7.26 0.42 -7.98 z M30.96 34.8 c-0.18 -0.6 0.66 -1.44 1.02 -1.62 c1.56 -0.72 3.54 0.36 3.72 0.48 c1.02 0.54 2.04 2.58 2.22 3.66 c0.84 3.54 0.6 7.62 -0.54 10.92 c-0.78 2.7 -5.04 6.6 -7.68 6.78 c-2.64 0.3 -4.8 0.12 -7.02 -1.14 c-4.32 -2.34 -4.68 -8.4 -4.32 -12.06 c0.72 -4.74 2.88 -9.06 7.98 -11.16 c1.08 -0.24 2.1 0.12 3.06 0.6 c1.02 0.66 0.48 1.92 0.12 3.06 c-0.78 1.92 -2.46 2.7 -3.72 4.8 c-0.66 1.38 -1.02 5.46 -0.24 7.8 c0.84 2.52 1.5 5.1 4.44 4.62 c2.7 -0.36 3.48 -1.5 4.56 -4.2 c1.08 -2.76 1.68 -7.74 -0.06 -10.08 c-0.54 -0.78 -1.26 -1.32 -2.34 -1.2 c-0.54 0 -0.66 -0.18 -1.2 -1.26 z M44.879999999999995 28.56 c-2.4 0.12 -3.48 -0.18 -3.78 -0.84 c-1.14 -1.74 0.96 -1.74 2.1 -1.68 c1.2 -0.12 0.72 0.12 1.98 -0.06 c0.3 -2.52 1.2 -9.78 4.2 -9.72 c1.38 -0.06 3.54 0.36 3.66 1.68 c0.06 2.76 -0.78 5.34 -0.6 7.92 c1.38 0.24 4.8 -0.24 4.8 1.32 c0.06 1.14 -2.04 1.44 -4.98 1.5 c-0.12 3.54 -1.02 12.24 -0.9 16.02 c0.18 6.78 0.72 8.82 1.98 10.56 c1.8 2.34 3.48 3.06 3.06 4.44 c-0.66 2.34 -5.22 1.02 -7.44 -0.9 c-1.44 -1.26 -3.48 -3.78 -4.2 -9.24 c-0.6 -4.44 -0.54 -8.58 -0.3 -13.02 c0 -0.6 0.42 -7.26 0.42 -7.98 z M68.51999999999998 42.42 c0 2.64 -0.36 7.38 2.04 11.46 c2.46 4.2 3.84 4.14 7.02 6.18 c1.32 0.84 0.18 3.18 -1.08 3.18 c-1.62 0 -6.66 -1.44 -9.78 -3.66 c-3.66 -2.64 -6.66 -6.96 -7.02 -17.22 c0.42 -8.34 3.96 -12.18 7.98 -14.94 c3.48 -2.4 9 -0.66 10.62 0.54 c2.1 1.56 2.28 3.96 1.32 6.66 c-1.08 3.42 -3.9 5.28 -7.5 6.72 c-0.9 0.36 -2.7 0.78 -3.6 1.08 z M68.21999999999998 39.42 c3.54 -1.32 6 -1.62 6.96 -5.4 c0.42 -1.68 -0.54 -5.82 -2.22 -5.52 c-2.88 0.54 -3.66 5.34 -4.32 7.62 c-0.24 0.9 -0.24 2.34 -0.42 3.3 z M96.89999999999998 35.879999999999995 c-2.58 0.36 -2.28 -2.22 -3 -3.54 c-0.36 -0.6 -0.6 -1.02 -1.26 -0.18 c-1.14 1.32 -1.44 2.88 -0.66 4.5 c1.32 2.76 3 4.8 4.92 6.9 c3.78 4.26 4.14 6.96 3.96 9.66 c-0.42 5.52 -9.18 9.78 -17.4 7.8 c0 0 -0.3 -0.3 -0.24 -0.78 c0.06 -0.36 0.66 -0.84 0.9 -0.84 c3.78 -0.84 7.02 -5.58 6.54 -8.64 s-3.3 -7.56 -5.16 -10.14 c-1.44 -1.92 -2.46 -4.2 -2.28 -6.78 c0.24 -1.26 1.44 -3.6 4.38 -4.98 c1.92 -0.9 5.7 0.18 7.74 1.8 c1.32 0.96 1.92 2.28 2.16 3.18 s0.24 1.92 -0.6 2.04 z  M122.39999999999999 28.38 c2.1 -1.32 4.62 -2.76 5.7 0.42 c0.78 2.28 0.48 3.06 0.9 5.4 c0.96 -2.28 2.4 -4.62 5.64 -6.36 s11.82 -0.18 12.84 8.64 c0.9 7.92 -1.98 11.1 -4.2 12.54 c-4.26 2.82 -11.64 0.3 -12.3 -1.32 c-0.78 -1.92 0.48 -2.46 1.32 -2.16 c1.8 0.66 6.06 2.28 7.74 -1.02 c0.72 -1.44 1.26 -4.56 0.3 -8.7 c-0.48 -1.98 -1.92 -5.76 -5.52 -4.02 c-2.82 1.38 -5.22 6.48 -5.34 10.92 c-0.12 1.86 -0.24 7.2 0 9.12 c1.2 15.42 0.6 6.78 1.68 17.46 c-0.24 1.92 -2.22 1.92 -3.96 1.2 s-3.18 -3.36 -3.66 -5.76 c-0.84 -4.92 -0.84 -9.12 -0.96 -13.8 c0 -4.56 -0.12 -8.76 0 -12.9 c0.12 -3.6 -0.54 -8.76 -0.18 -9.66 z M160.07999999999998 42.42 c0 2.64 -0.36 7.38 2.04 11.46 c2.46 4.2 3.84 4.14 7.02 6.18 c1.32 0.84 0.18 3.18 -1.08 3.18 c-1.62 0 -6.66 -1.44 -9.78 -3.66 c-3.66 -2.64 -6.66 -6.96 -7.02 -17.22 c0.42 -8.34 3.96 -12.18 7.98 -14.94 c3.48 -2.4 9 -0.66 10.62 0.54 c2.1 1.56 2.28 3.96 1.32 6.66 c-1.08 3.42 -3.9 5.28 -7.5 6.72 c-0.9 0.36 -2.7 0.78 -3.6 1.08 z M159.78 39.42 c3.54 -1.32 6 -1.62 6.96 -5.4 c0.42 -1.68 -0.54 -5.82 -2.22 -5.52 c-2.88 0.54 -3.66 5.34 -4.32 7.62 c-0.24 0.9 -0.24 2.34 -0.42 3.3 z M178.2 28.56 c-2.4 0.12 -3.48 -0.18 -3.78 -0.84 c-1.14 -1.74 0.96 -1.74 2.1 -1.68 c1.2 -0.12 0.72 0.12 1.98 -0.06 c0.3 -2.52 1.2 -9.78 4.2 -9.72 c1.38 -0.06 3.54 0.36 3.66 1.68 c0.06 2.76 -0.78 5.34 -0.6 7.92 c1.38 0.24 4.8 -0.24 4.8 1.32 c0.06 1.14 -2.04 1.44 -4.98 1.5 c-0.12 3.54 -1.02 12.24 -0.9 16.02 c0.18 6.78 0.72 8.82 1.98 10.56 c1.8 2.34 3.48 3.06 3.06 4.44 c-0.66 2.34 -5.22 1.02 -7.44 -0.9 c-1.44 -1.26 -3.48 -3.78 -4.2 -9.24 c-0.6 -4.44 -0.54 -8.58 -0.3 -13.02 c0 -0.6 0.42 -7.26 0.42 -7.98 z M206.70000000000002 35.879999999999995 c-2.58 0.36 -2.28 -2.22 -3 -3.54 c-0.36 -0.6 -0.6 -1.02 -1.26 -0.18 c-1.14 1.32 -1.44 2.88 -0.66 4.5 c1.32 2.76 3 4.8 4.92 6.9 c3.78 4.26 4.14 6.96 3.96 9.66 c-0.42 5.52 -9.18 9.78 -17.4 7.8 c0 0 -0.3 -0.3 -0.24 -0.78 c0.06 -0.36 0.66 -0.84 0.9 -0.84 c3.78 -0.84 7.02 -5.58 6.54 -8.64 s-3.3 -7.56 -5.16 -10.14 c-1.44 -1.92 -2.46 -4.2 -2.28 -6.78 c0.24 -1.26 1.44 -3.6 4.38 -4.98 c1.92 -0.9 5.7 0.18 7.74 1.8 c1.32 0.96 1.92 2.28 2.16 3.18 s0.24 1.92 -0.6 2.04 z"/></g><g id="SvgjsG1009" rel="mainfill" name="symbol" xmlns:name="symbol_mainfill" fill="#462310" transform="translate(41.74220685035342, -8.755904354591241) scale(1.306851619427497)"><g xmlns="http://www.w3.org/2000/svg"><path d="M80,60.7c-8.2,0-14.8-6.6-14.8-14.8S71.9,31.2,80,31.2S94.8,37.8,94.8,46S88.2,60.7,80,60.7z M80,36c-5.5,0-10,4.5-10,10   c0,5.5,4.5,10,10,10c5.5,0,10-4.5,10-10C90,40.5,85.5,36,80,36z"/><path d="M75.9,63.9h-4.5c-4.5,0-8.8-2.2-11.4-5.9l-4.3-5.9c4.2-5.6-14.9-16.7-6.6-22.7c4-2.9,7.9,2.8,11,3.7c1.7,0.5,6,0.6,7.1-1   c1.9-2.4-1.4-4-2.5-6c0,0,0-0.1,0-0.1c-0.5-3.6-2.6-6.3-5.2-7.4c-1.4-0.6-4.4-9.4-4.7-11.9c-2.1,1.8-5.1,4.6-4.1,7.6   c0.2,0.4,0.4,0.9,0.6,1.3c0.2,0.5-0.1,1.1-0.6,1.4c-1,0.5-2.1,0.6-3.3,0.5c-2.9,0.6-6.8,0.3-8.7,0.8c-12.7,3.5-17,15.1-17.4,27.4   c-2.3-1.5-17.5-5.9-16.1-2.4c0.6,1.3,7.6,3.8,8.6,4.1c3.9,1.5,7,3.9,9.4,7.4c4.2,6.2,0.7,9.3,2.3,14.5c1.2,3.9,7.2,10.7,11.4,10.3   c3.4-0.3,0.1-5.5-1.6-7.7c-4.6-5.9,1.2-9.2,1.2-16.2c0-0.5,0-1,0-1.6l9.2,13.1c4.1,5.7,6.3,12.5,6.3,19.5V95h4.8v-8.2   c0-8.1-2.5-15.7-7.1-22.3L36.5,46.1l-4.5-6.4c-1-1.4-0.8-3.4,0.6-4.5c0.7-0.6,1.7-0.9,2.6-0.8c0.9,0.1,1.8,0.6,2.3,1.4l2.8,3.8   L56,60.8c3.5,4.9,9.3,7.9,15.3,7.9h4.5c7.8,0,14.2,6.4,14.2,14.2V95h4.8V82.9C94.8,72.4,86.3,63.9,75.9,63.9z"/></g></g>
			</g>
		</svg>
    