<?xml version="1.0" encoding="UTF-8" standalone="no"?>
<svg
   xmlns:dc="http://purl.org/dc/elements/1.1/"
   xmlns:cc="http://creativecommons.org/ns#"
   xmlns:rdf="http://www.w3.org/1999/02/22-rdf-syntax-ns#"
   xmlns:svg="http://www.w3.org/2000/svg"
   xmlns="http://www.w3.org/2000/svg"
   id="svg4498"
   version="1.1"
   height="2902.161766018388"
   width="3282.5657013976947">
  <metadata
     id="metadata4504">
    <rdf:RDF>
      <cc:Work
         rdf:about="">
        <dc:format>image/svg+xml</dc:format>
        <dc:type
           rdf:resource="http://purl.org/dc/dcmitype/StillImage" />
        <dc:title></dc:title>
      </cc:Work>
    </rdf:RDF>
  </metadata>
  <defs
     id="defs4502" />
  <g
     id="g4496"
     transform="matrix(24.413676,0,0,24.413676,-962.09283,44.083786)">
    <defs
       id="SvgjsDefs1002" />
    <g
       style="fill:#462310"
       transform="matrix(1.3068516,0,0,1.3068516,41.742207,-8.7559044)"
       name="symbol"
       rel="mainfill"
       id="SvgjsG1009">
      <g
         id="g4493">
        <path
           id="path4489"
           d="m 80,60.7 c -8.2,0 -14.8,-6.6 -14.8,-14.8 0,-8.2 6.7,-14.7 14.8,-14.7 8.1,0 14.8,6.6 14.8,14.8 0,8.2 -6.6,14.7 -14.8,14.7 z M 80,36 c -5.5,0 -10,4.5 -10,10 0,5.5 4.5,10 10,10 5.5,0 10,-4.5 10,-10 0,-5.5 -4.5,-10 -10,-10 z" />
        <path
           id="path4491"
           d="M 75.9,63.9 H 71.4 C 66.9,63.9 62.6,61.7 60,58 l -4.3,-5.9 c 4.2,-5.6 -14.9,-16.7 -6.6,-22.7 4,-2.9 7.9,2.8 11,3.7 1.7,0.5 6,0.6 7.1,-1 1.9,-2.4 -1.4,-4 -2.5,-6 0,0 0,-0.1 0,-0.1 C 64.2,22.4 62.1,19.7 59.5,18.6 58.1,18 55.1,9.2 54.8,6.7 c -2.1,1.8 -5.1,4.6 -4.1,7.6 0.2,0.4 0.4,0.9 0.6,1.3 0.2,0.5 -0.1,1.1 -0.6,1.4 -1,0.5 -2.1,0.6 -3.3,0.5 -2.9,0.6 -6.8,0.3 -8.7,0.8 C 26,21.8 21.7,33.4 21.3,45.7 19,44.2 3.8,39.8 5.2,43.3 c 0.6,1.3 7.6,3.8 8.6,4.1 3.9,1.5 7,3.9 9.4,7.4 4.2,6.2 0.7,9.3 2.3,14.5 1.2,3.9 7.2,10.7 11.4,10.3 3.4,-0.3 0.1,-5.5 -1.6,-7.7 -4.6,-5.9 1.2,-9.2 1.2,-16.2 0,-0.5 0,-1 0,-1.6 l 9.2,13.1 C 49.8,72.9 52,79.7 52,86.7 V 95 h 4.8 v -8.2 c 0,-8.1 -2.5,-15.7 -7.1,-22.3 L 36.5,46.1 32,39.7 c -1,-1.4 -0.8,-3.4 0.6,-4.5 0.7,-0.6 1.7,-0.9 2.6,-0.8 0.9,0.1 1.8,0.6 2.3,1.4 l 2.8,3.8 15.7,21.2 c 3.5,4.9 9.3,7.9 15.3,7.9 h 4.5 c 7.8,0 14.2,6.4 14.2,14.2 V 95 h 4.8 V 82.9 c 0,-10.5 -8.5,-19 -18.9,-19 z" />
      </g>
    </g>
  </g>
</svg>
