<?xml version="1.0" encoding="UTF-8" standalone="no"?>
<svg
   xmlns:dc="http://purl.org/dc/elements/1.1/"
   xmlns:cc="http://creativecommons.org/ns#"
   xmlns:rdf="http://www.w3.org/1999/02/22-rdf-syntax-ns#"
   xmlns:svg="http://www.w3.org/2000/svg"
   xmlns="http://www.w3.org/2000/svg"
   id="svg8"
   version="1.1"
   viewBox="0 0 300 220"
   height="816"
   width="1056">
  <defs
     id="defs2" />
  <metadata
     id="metadata5">
    <rdf:RDF>
      <cc:Work
         rdf:about="">
        <dc:format>image/svg+xml</dc:format>
        <dc:type
           rdf:resource="http://purl.org/dc/dcmitype/StillImage" />
        <dc:title></dc:title>
      </cc:Work>
    </rdf:RDF>
  </metadata>
  <g
     id="layer1">
    <g
       id="g5366">
      <g
         id="g5189"
         transform="matrix(1.0218206,0,0,1.0874121,-0.93702109,-18.90824)">
        <g
           id="g5153">
          <g
             id="g5118">
            <g
               id="g5084">
              <g
                 id="g5051">
                <g
                   id="g5019">
                  <g
                     id="g4988">
                    <g
                       id="g4958">
                      <g
                         id="g4929">
                        <g
                           id="g4901">
                          <g
                             id="g4874">
                            <g
                               id="g4848">
                              <g
                                 id="g4823">
                                <g
                                   id="g4799">
                                <g
                                   id="g4776">
                                <g
                                   id="g4754">
                                <g
                                   id="g4733">
                                <g
                                   id="g4713">
                                <g
                                   id="g4694">
                                <g
                                   id="g4676">
                                <g
                                   id="g4659">
                                <g
                                   id="g4643">
                                <g
                                   id="g4628">
                                <g
                                   id="g4614">
                                <g
                                   id="g4601">
                                <g
                                   id="g4589">
                                <g
                                   id="g4578">
                                <g
                                   id="g4568">
                                <g
                                   id="g4559">
                                <g
                                   id="g4551">
                                <g
                                   id="g4544">
                                <g
                                   id="g4538">
                                <g
                                   id="g4533">
                                <g
                                   id="g4529">
                                <g
                                   id="g5241"
                                   transform="matrix(1,0,0,1.1666768,0,-37.166951)">
                                <g
                                   id="g4526">
                                <g
                                   id="g5222">
                                <g
                                   id="g5214">
                                <g
                                   id="g5207">
                                <g
                                   id="g5201">
                                <g
                                   id="g5196">
                                <g
                                   id="g5192">
                                <path
                                   transform="rotate(-30)"
                                   style="fill:#e0763d;fill-opacity:1;stroke:none;stroke-width:1.70354462;stroke-linecap:round;stroke-linejoin:round;stroke-miterlimit:4;stroke-dasharray:none;stroke-opacity:1"
                                   d="m 6.921875,121.95703 c -18.585575,0.41956 -37.238772,3.27934 -54.747596,9.65799 -11.411108,4.18639 -22.420562,9.95183 -31.3975,18.24942 -4.270849,3.98764 -8.177648,8.45919 -11.052599,13.56717 -5.814196,10.86489 -5.187461,24.92482 1.827877,35.10108 5.968095,9.54562 15.12478,16.64706 24.934247,21.92619 16.2745,8.95821 34.615889,13.44889 52.954821,15.6289 24.480922,2.78719 49.727277,0.89735 73.058179,-7.30143 13.042154,-4.80205 24.087753,-13.54045 34.618792,-22.38012 5.825144,-4.93657 11.870284,-9.93476 15.850814,-16.5583 3.60733,-7.10407 3.54672,-15.68872 0.87868,-23.0902 -3.03558,-8.27874 -8.8196,-15.31024 -15.532944,-20.91092 -8.337003,-6.88498 -18.377826,-11.32268 -28.61316,-14.57026 -12.159482,-3.86717 -24.754119,-6.20921 -37.392167,-7.8387 -8.421841,-1.00575 -16.90391,-1.5519 -25.387444,-1.48082 z"
                                   id="path4493" />
                                </g>
                                </g>
                                </g>
                                </g>
                                </g>
                                </g>
                                </g>
                                <path
                                   transform="rotate(30)"
                                   style="fill:#e0763d;fill-opacity:1;stroke:none;stroke-width:1.70354462;stroke-linecap:round;stroke-linejoin:round;stroke-miterlimit:4;stroke-dasharray:none;stroke-opacity:1"
                                   d="m 242.64648,-25.980469 c -21.40112,1.023301 -42.89303,4.203752 -63.08008,11.598861 -15.52663,5.5046029 -29.14986,16.8769981 -36.37959,31.788621 -4.6641,9.851876 -4.85423,22.011963 0.54342,31.618783 4.82632,8.631739 12.76042,15.054643 21.23933,19.893527 23.39556,13.371094 50.38399,19.634756 77.19564,20.303862 25.44757,0.668991 51.26723,-3.888961 74.31607,-14.910108 11.20205,-5.534283 21.59232,-13.34321 28.56717,-23.843355 5.57196,-8.713372 7.44357,-20.053167 3.75011,-29.852616 -3.51341,-9.801461 -10.84545,-17.7870321 -19.24711,-23.716951 -13.46301,-9.738176 -29.39368,-15.464838 -45.52139,-18.972044 -13.58387,-2.898741 -27.50868,-4.011848 -41.38357,-3.90858 z"
                                   id="path4493-6" />
                                </g>
                                </g>
                                </g>
                                </g>
                                </g>
                                </g>
                                </g>
                                </g>
                                </g>
                                </g>
                                </g>
                                </g>
                                </g>
                                </g>
                                </g>
                                </g>
                                </g>
                                </g>
                                </g>
                                </g>
                                </g>
                                </g>
                              </g>
                            </g>
                          </g>
                        </g>
                      </g>
                    </g>
                  </g>
                </g>
              </g>
            </g>
          </g>
        </g>
      </g>
      <path
         style="fill:#e0763d;fill-opacity:1;stroke:none;stroke-width:2.14745879;stroke-linecap:round;stroke-linejoin:round;stroke-miterlimit:4;stroke-dasharray:none;stroke-opacity:1"
         d="M 79.669922 151.48828 C 73.977625 154.39243 68.571292 157.83342 63.385706 161.56027 C 60.429714 163.84648 58.036847 166.82905 56.367826 170.16779 C 55.355322 171.97575 54.466448 173.99195 54.653836 176.11302 C 54.76664 178.8274 55.498105 181.48624 56.507812 183.99609 C 58.838393 189.37375 63.22119 193.75881 68.458945 196.3393 C 77.91457 201.87148 88.235096 206.10755 99.074219 207.92773 C 103.69126 208.5135 108.33925 207.5063 112.70217 206.042 C 120.18313 203.83436 127.72049 201.60917 135.5071 200.80166 C 145.29028 199.52537 155.21847 199.18254 165.04865 200.1101 C 172.49828 200.92723 179.79827 202.84551 186.80167 205.48804 C 190.73984 206.83019 194.7387 208.27944 198.94058 208.42209 C 203.33047 208.29284 207.47228 206.68073 211.61072 205.37657 C 219.0911 202.90108 226.55056 200.04443 233.11713 195.61333 C 237.50229 192.66693 241.63227 189.10997 244.35132 184.51891 C 247.30129 179.48182 247.05086 172.81906 243.8792 167.94235 C 241.80302 164.6087 238.60453 162.20629 235.41648 160.01219 C 230.91259 156.92981 225.99602 154.52983 221.125 152.0957 C 219.51452 151.67162 217.92924 152.40293 216.40956 152.85023 C 208.8074 155.50219 201.26294 158.31554 193.69825 161.07169 C 179.88115 166.13689 166.07939 171.24381 152.27148 176.33398 C 146.63928 175.03278 141.15271 173.18736 135.68648 171.32499 C 128.96015 168.99819 122.27046 166.56715 115.55037 164.22253 C 103.63775 159.97908 91.725124 155.73563 79.8125 151.49219 C 79.765069 151.48539 79.717607 151.48605 79.669922 151.48828 z "
         id="path5317" />
    </g>
  </g>
</svg>
