<?xml version="1.0" encoding="UTF-8" standalone="no"?>
<svg
   xmlns:dc="http://purl.org/dc/elements/1.1/"
   xmlns:cc="http://creativecommons.org/ns#"
   xmlns:rdf="http://www.w3.org/1999/02/22-rdf-syntax-ns#"
   xmlns:svg="http://www.w3.org/2000/svg"
   xmlns="http://www.w3.org/2000/svg"
   id="svg15"
   version="1.1"
   height="832.65582"
   width="3046.5132">
  <metadata
     id="metadata21">
    <rdf:RDF>
      <cc:Work
         rdf:about="">
        <dc:format>image/svg+xml</dc:format>
        <dc:type
           rdf:resource="http://purl.org/dc/dcmitype/StillImage" />
        <dc:title></dc:title>
      </cc:Work>
    </rdf:RDF>
  </metadata>
  <defs
     id="defs19" />
  <g
     id="g13"
     transform="matrix(14.128285,0,0,14.128285,18.539773,-1813.0274)">
    <defs
       id="SvgjsDefs1002" />
    <g
       style="fill:#ffffff"
       transform="translate(1.4999999,114.195)"
       name="main_text"
       rel="mainfill"
       id="main_text">
      <path
         id="path3"
         d="m 3.42,28.56 c -2.4,0.12 -3.48,-0.18 -3.78,-0.84 -1.14,-1.74 0.96,-1.74 2.1,-1.68 1.2,-0.12 0.72,0.12 1.98,-0.06 0.3,-2.52 1.2,-9.78 4.2,-9.72 1.38,-0.06 3.54,0.36 3.66,1.68 0.06,2.76 -0.78,5.34 -0.6,7.92 1.38,0.24 4.8,-0.24 4.8,1.32 0.06,1.14 -2.04,1.44 -4.98,1.5 -0.12,3.54 -1.02,12.24 -0.9,16.02 0.18,6.78 0.72,8.82 1.98,10.56 1.8,2.34 3.48,3.06 3.06,4.44 C 14.28,62.04 9.72,60.72 7.5,58.8 6.06,57.54 4.02,55.02 3.3,49.56 2.7,45.12 2.76,40.98 3,36.54 3,35.94 3.42,29.28 3.42,28.56 Z m 27.54,6.24 c -0.18,-0.6 0.66,-1.44 1.02,-1.62 1.56,-0.72 3.54,0.36 3.72,0.48 1.02,0.54 2.04,2.58 2.22,3.66 0.84,3.54 0.6,7.62 -0.54,10.92 -0.78,2.7 -5.04,6.6 -7.68,6.78 -2.64,0.3 -4.8,0.12 -7.02,-1.14 -4.32,-2.34 -4.68,-8.4 -4.32,-12.06 0.72,-4.74 2.88,-9.06 7.98,-11.16 1.08,-0.24 2.1,0.12 3.06,0.6 1.02,0.66 0.48,1.92 0.12,3.06 -0.78,1.92 -2.46,2.7 -3.72,4.8 -0.66,1.38 -1.02,5.46 -0.24,7.8 0.84,2.52 1.5,5.1 4.44,4.62 2.7,-0.36 3.48,-1.5 4.56,-4.2 1.08,-2.76 1.68,-7.74 -0.06,-10.08 -0.54,-0.78 -1.26,-1.32 -2.34,-1.2 -0.54,0 -0.66,-0.18 -1.2,-1.26 z m 13.92,-6.24 c -2.4,0.12 -3.48,-0.18 -3.78,-0.84 -1.14,-1.74 0.96,-1.74 2.1,-1.68 1.2,-0.12 0.72,0.12 1.98,-0.06 0.3,-2.52 1.2,-9.78 4.2,-9.72 1.38,-0.06 3.54,0.36 3.66,1.68 0.06,2.76 -0.78,5.34 -0.6,7.92 1.38,0.24 4.8,-0.24 4.8,1.32 0.06,1.14 -2.04,1.44 -4.98,1.5 -0.12,3.54 -1.02,12.24 -0.9,16.02 0.18,6.78 0.72,8.82 1.98,10.56 1.8,2.34 3.48,3.06 3.06,4.44 -0.66,2.34 -5.22,1.02 -7.44,-0.9 -1.44,-1.26 -3.48,-3.78 -4.2,-9.24 -0.6,-4.44 -0.54,-8.58 -0.3,-13.02 0,-0.6 0.42,-7.26 0.42,-7.98 z m 23.64,13.86 c 0,2.64 -0.36,7.38 2.04,11.46 2.46,4.2 3.84,4.14 7.02,6.18 1.32,0.84 0.18,3.18 -1.08,3.18 -1.62,0 -6.66,-1.44 -9.78,-3.66 -3.66,-2.64 -6.66,-6.96 -7.02,-17.22 0.42,-8.34 3.96,-12.18 7.98,-14.94 3.48,-2.4 9,-0.66 10.62,0.54 2.1,1.56 2.28,3.96 1.32,6.66 -1.08,3.42 -3.9,5.28 -7.5,6.72 -0.9,0.36 -2.7,0.78 -3.6,1.08 z m -0.3,-3 c 3.54,-1.32 6,-1.62 6.96,-5.4 0.42,-1.68 -0.54,-5.82 -2.22,-5.52 -2.88,0.54 -3.66,5.34 -4.32,7.62 -0.24,0.9 -0.24,2.34 -0.42,3.3 z M 96.9,35.88 c -2.58,0.36 -2.28,-2.22 -3,-3.54 -0.36,-0.6 -0.6,-1.02 -1.26,-0.18 -1.14,1.32 -1.44,2.88 -0.66,4.5 1.32,2.76 3,4.8 4.92,6.9 3.78,4.26 4.14,6.96 3.96,9.66 -0.42,5.52 -9.18,9.78 -17.4,7.8 0,0 -0.3,-0.3 -0.24,-0.78 0.06,-0.36 0.66,-0.84 0.9,-0.84 3.78,-0.84 7.02,-5.58 6.54,-8.64 -0.48,-3.06 -3.3,-7.56 -5.16,-10.14 -1.44,-1.92 -2.46,-4.2 -2.28,-6.78 0.24,-1.26 1.44,-3.6 4.38,-4.98 1.92,-0.9 5.7,0.18 7.74,1.8 1.32,0.96 1.92,2.28 2.16,3.18 0.24,0.9 0.24,1.92 -0.6,2.04 z m 25.5,-7.5 c 2.1,-1.32 4.62,-2.76 5.7,0.42 0.78,2.28 0.48,3.06 0.9,5.4 0.96,-2.28 2.4,-4.62 5.64,-6.36 3.24,-1.74 11.82,-0.18 12.84,8.64 0.9,7.92 -1.98,11.1 -4.2,12.54 -4.26,2.82 -11.64,0.3 -12.3,-1.32 -0.78,-1.92 0.48,-2.46 1.32,-2.16 1.8,0.66 6.06,2.28 7.74,-1.02 0.72,-1.44 1.26,-4.56 0.3,-8.7 -0.48,-1.98 -1.92,-5.76 -5.52,-4.02 -2.82,1.38 -5.22,6.48 -5.34,10.92 -0.12,1.86 -0.24,7.2 0,9.12 1.2,15.42 0.6,6.78 1.68,17.46 -0.24,1.92 -2.22,1.92 -3.96,1.2 -1.74,-0.72 -3.18,-3.36 -3.66,-5.76 -0.84,-4.92 -0.84,-9.12 -0.96,-13.8 0,-4.56 -0.12,-8.76 0,-12.9 0.12,-3.6 -0.54,-8.76 -0.18,-9.66 z m 37.68,14.04 c 0,2.64 -0.36,7.38 2.04,11.46 2.46,4.2 3.84,4.14 7.02,6.18 1.32,0.84 0.18,3.18 -1.08,3.18 -1.62,0 -6.66,-1.44 -9.78,-3.66 -3.66,-2.64 -6.66,-6.96 -7.02,-17.22 0.42,-8.34 3.96,-12.18 7.98,-14.94 3.48,-2.4 9,-0.66 10.62,0.54 2.1,1.56 2.28,3.96 1.32,6.66 -1.08,3.42 -3.9,5.28 -7.5,6.72 -0.9,0.36 -2.7,0.78 -3.6,1.08 z m -0.3,-3 c 3.54,-1.32 6,-1.62 6.96,-5.4 0.42,-1.68 -0.54,-5.82 -2.22,-5.52 -2.88,0.54 -3.66,5.34 -4.32,7.62 -0.24,0.9 -0.24,2.34 -0.42,3.3 z M 178.2,28.56 c -2.4,0.12 -3.48,-0.18 -3.78,-0.84 -1.14,-1.74 0.96,-1.74 2.1,-1.68 1.2,-0.12 0.72,0.12 1.98,-0.06 0.3,-2.52 1.2,-9.78 4.2,-9.72 1.38,-0.06 3.54,0.36 3.66,1.68 0.06,2.76 -0.78,5.34 -0.6,7.92 1.38,0.24 4.8,-0.24 4.8,1.32 0.06,1.14 -2.04,1.44 -4.98,1.5 -0.12,3.54 -1.02,12.24 -0.9,16.02 0.18,6.78 0.72,8.82 1.98,10.56 1.8,2.34 3.48,3.06 3.06,4.44 -0.66,2.34 -5.22,1.02 -7.44,-0.9 -1.44,-1.26 -3.48,-3.78 -4.2,-9.24 -0.6,-4.44 -0.54,-8.58 -0.3,-13.02 0,-0.6 0.42,-7.26 0.42,-7.98 z m 28.5,7.32 c -2.58,0.36 -2.28,-2.22 -3,-3.54 -0.36,-0.6 -0.6,-1.02 -1.26,-0.18 -1.14,1.32 -1.44,2.88 -0.66,4.5 1.32,2.76 3,4.8 4.92,6.9 3.78,4.26 4.14,6.96 3.96,9.66 -0.42,5.52 -9.18,9.78 -17.4,7.8 0,0 -0.3,-0.3 -0.24,-0.78 0.06,-0.36 0.66,-0.84 0.9,-0.84 3.78,-0.84 7.02,-5.58 6.54,-8.64 -0.48,-3.06 -3.3,-7.56 -5.16,-10.14 -1.44,-1.92 -2.46,-4.2 -2.28,-6.78 0.24,-1.26 1.44,-3.6 4.38,-4.98 1.92,-0.9 5.7,0.18 7.74,1.8 1.32,0.96 1.92,2.28 2.16,3.18 0.24,0.9 0.24,1.92 -0.6,2.04 z" />
    </g>
  </g>
</svg>
